# Rhino

mtllib test.mtl
usemtl Paint
v 17.5 0 2
v 17.5 2 2
v 23 0 2
v 23 2 2
v 23 0 2
v 23 2 2
v 23 0 0.033655773848295212
v 23 2 0.033655773848295212
v 23 0 0.033655773848295212
v 23 2 0.033655773848295212
v 17.5 0 0.033655773848295212
v 17.5 2 0.033655773848295212
v 17.5 0 0.033655773848295212
v 17.5 2 0.033655773848295212
v 17.5 0 2
v 17.5 2 2
v 17.5 0 2
v 23 0 2
v 23 0 0.033655773848295212
v 17.5 0 0.033655773848295212
v 17.5 2 2
v 23 2 2
v 23 2 0.033655773848295212
v 17.5 2 0.033655773848295212
vt 0 0
vt 0 0.66855722665786743
vt 0.36831948161125183 0
vt 0.36831948161125183 0.66855722665786743
vt 0.36831948161125183 0
vt 0.36831948161125183 0.66855722665786743
vt 0.5 0
vt 0.5 0.66855722665786743
vt 0.5 0
vt 0.5 0.66855722665786743
vt 0.86831945180892944 0
vt 0.86831945180892944 0.66855722665786743
vt 0.86831945180892944 0
vt 0.86831945180892944 0.66855722665786743
vt 1 0
vt 1 0.66855722665786743
vt 0 1
vt 0.36831948161125183 1
vt 0.36831948161125183 0.66855788230895996
vt 0 0.66855788230895996
vt 0.63168054819107056 0.66855788230895996
vt 1 0.66855788230895996
vt 1 1
vt 0.63168054819107056 1
vn 0 0 1
vn 0 0 1
vn 0 0 1
vn 0 0 1
vn 1 0 0
vn 1 0 0
vn 1 0 0
vn 1 0 0
vn 0 0 -1
vn 0 0 -1
vn 0 0 -1
vn 0 0 -1
vn -1 0 0
vn -1 0 0
vn -1 0 0
vn -1 0 0
vn 0 -1 0
vn 0 -1 0
vn 0 -1 0
vn 0 -1 0
vn 0 1 0
vn 0 1 0
vn 0 1 0
vn 0 1 0
f 1/1/1 3/3/3 4/4/4 2/2/2
f 5/5/5 7/7/7 8/8/8 6/6/6
f 9/9/9 11/11/11 12/12/12 10/10/10
f 13/13/13 15/15/15 16/16/16 14/14/14
f 18/18/18 17/17/17 20/20/20
f 20/20/20 19/19/19 18/18/18
f 22/22/22 24/24/24 21/21/21
f 24/24/24 22/22/22 23/23/23
usemtl Metal
v 17.5 0 -3
v 17.5 2 -3
v 23 0 -3
v 23 2 -3
v 23 0 -3
v 23 2 -3
v 23 0 -4.9663443565368652
v 23 2 -4.9663443565368652
v 23 0 -4.9663443565368652
v 23 2 -4.9663443565368652
v 17.5 0 -4.9663443565368652
v 17.5 2 -4.9663443565368652
v 17.5 0 -4.9663443565368652
v 17.5 2 -4.9663443565368652
v 17.5 0 -3
v 17.5 2 -3
v 17.5 0 -3
v 23 0 -3
v 23 0 -4.9663443565368652
v 17.5 0 -4.9663443565368652
v 17.5 2 -3
v 23 2 -3
v 23 2 -4.9663443565368652
v 17.5 2 -4.9663443565368652
vt 0 0
vt 0 0.66855722665786743
vt 0.36831948161125183 0
vt 0.36831948161125183 0.66855722665786743
vt 0.36831948161125183 0
vt 0.36831948161125183 0.66855722665786743
vt 0.5 0
vt 0.5 0.66855722665786743
vt 0.5 0
vt 0.5 0.66855722665786743
vt 0.86831945180892944 0
vt 0.86831945180892944 0.66855722665786743
vt 0.86831945180892944 0
vt 0.86831945180892944 0.66855722665786743
vt 1 0
vt 1 0.66855722665786743
vt 0 1
vt 0.36831948161125183 1
vt 0.36831948161125183 0.66855788230895996
vt 0 0.66855788230895996
vt 0.63168054819107056 0.66855788230895996
vt 1 0.66855788230895996
vt 1 1
vt 0.63168054819107056 1
vn 0 0 1
vn 0 0 1
vn 0 0 1
vn 0 0 1
vn 1 0 0
vn 1 0 0
vn 1 0 0
vn 1 0 0
vn 0 0 -1
vn 0 0 -1
vn 0 0 -1
vn 0 0 -1
vn -1 0 0
vn -1 0 0
vn -1 0 0
vn -1 0 0
vn 0 -1 0
vn 0 -1 0
vn 0 -1 0
vn 0 -1 0
vn 0 1 0
vn 0 1 0
vn 0 1 0
vn 0 1 0
f 25/25/25 27/27/27 28/28/28 26/26/26
f 29/29/29 31/31/31 32/32/32 30/30/30
f 33/33/33 35/35/35 36/36/36 34/34/34
f 37/37/37 39/39/39 40/40/40 38/38/38
f 42/42/42 41/41/41 44/44/44
f 44/44/44 43/43/43 42/42/42
f 46/46/46 48/48/48 45/45/45
f 48/48/48 46/46/46 47/47/47
usemtl Ako polished
v 0 6.5 11.064282417297363
v 0 12.5 11.064282417297363
v 6 6.5 11.064282417297363
v 6 12.5 11.064282417297363
v 3 6.5 11.064282417297363
v 6 9.5 11.064282417297363
v 3 12.5 11.064282417297363
v 0 9.5 11.064282417297363
v 6 6.5 11.064282417297363
v 6 12.5 11.064282417297363
v 6 6.5 -2.9357173442840576
v 6 12.5 -2.9357173442840576
v 6 9.5 11.064282417297363
v 6 9.5 -2.9357173442840576
v 6 12.5 4.0642828941345215
v 6 6.5 8
v 6 8 0
v 6 6.5 0
v 6 8 4
v 6 6.5 4
v 6 6.5 6
v 6 6.5 -2.9357173442840576
v 6 12.5 -2.9357173442840576
v 0 6.5 -2.9357173442840576
v 0 12.5 -2.9357173442840576
v 6 9.5 -2.9357173442840576
v 3 6.5 -2.9357173442840576
v 0 9.5 -2.9357173442840576
v 3 12.5 -2.9357173442840576
v 0 6.5 0
v 0 6.5 -2.9357173442840576
v 6 6.5 0
v 6 6.5 -2.9357173442840576
v 3 6.5 -2.9357173442840576
v 3 6.5 0
v 0 12.5 11.064282417297363
v 0 12.5 -2.9357173442840576
v 6 12.5 11.064282417297363
v 6 12.5 -2.9357173442840576
v 3 12.5 11.064282417297363
v 6 12.5 4.0642828941345215
v 3 12.5 -2.9357173442840576
v 0 12.5 4.0642828941345215
v 6 6.5 8
v 6 4.5 8
v 6 6.5 4
v 6 4.5 4
v 6 4.5 6
v 6 6.5 6
v 29 6.5 0
v 29 4.5 0
v 29 6.5 8
v 29 4.5 8
v 29 6.5 4
v 29 4.5 4
v 29 6.5 8
v 29 4.5 8
v 6 6.5 8
v 6 4.5 8
v 21.333333969116211 6.5 8
v 13.666666984558105 6.5 8
v 13.666666984558105 4.5 8
v 21.333333969116211 4.5 8
v 6 6.5 8
v 29 6.5 8
v 29 6.5 0
v 29 6.5 4
v 6 6.5 4
v 21.333333969116211 6.5 8
v 13.666666984558105 6.5 8
v 9 6.5 4
v 12 6.5 4
v 12 6.5 2
v 12 6.5 0
v 6 6.5 6
v 6 4.5 8
v 29 4.5 8
v 29 4.5 0
v 6 4.5 6
v 29 4.5 4
v 6 4.5 4
v 21.333333969116211 4.5 8
v 13.666666984558105 4.5 8
v 12 4.5 4
v 12 4.5 2
v 12 4.5 0
v 12 6.5 4
v 12 8 4
v 12 6.5 0
v 12 8 0
v 12 8 2
v 12 6.5 2
v 0 0 4
v 0 0 0
v 12 0 4
v 12 0 0
v 6 0 4
v 12 0 2
v 6 0 0
v 0 0 4
v 0 6.5 4
v 12 0 4
v 6 0 4
v 12 2.25 4
v 12 4.5 4
v 6 6.5 4
v 6 4.5 4
v 3 6.5 4
v 12 0 4
v 12 4.5 4
v 12 0 0
v 12 4.5 0
v 12 2.25 4
v 12 0 2
v 12 2.25 0
v 12 4.5 2
v 0 6.5 11.064282417297363
v 0 6.5 4
v 6 6.5 11.064282417297363
v 6 6.5 4
v 3 6.5 11.064282417297363
v 6 6.5 8
v 3 6.5 4
v 6 6.5 6
v 0 6.5 7.5321412086486816
v 6 8 4
v 6 8 0
v 12 8 4
v 12 8 0
v 12 8 2
v 9 8 0
v 9 8 4
v 6 6.5 4
v 6 8 4
v 12 6.5 4
v 12 8 4
v 9 6.5 4
v 9 8 4
v 0 0 0
v 29 6.5 0
v 29 4.5 0
v 12 4.5 0
v 12 2.25 0
v 12 0 0
v 7.25 6 0
v 6 0 0
v 0 6.5 0
v 6 8 0
v 9 8 0
v 12 8 0
v 12 6.5 0
v 10.875 6 0
v 7.25 7 0
v 10.875 7 0
v 6 6.5 0
v 3 6.5 0
v 0 12.5 -2.9357173442840576
v 0 12.5 11.064282417297363
v 0 6.5 11.064282417297363
v 0 9.5 11.064282417297363
v 0 12.5 4.0642828941345215
v 0 9.5 -2.9357173442840576
v 0 6.5 -2.9357173442840576
v 0 6.5 0
v 0 0 4
v 0 6.5 4
v 0 0 0
v 0 6.5 7.5321412086486816
vt 0 0.064999997615814209
vt 0 0.125
vt 0.059999998658895493 0.064999997615814209
vt 0.059999998658895493 0.125
vt 0.029999999329447746 0.064999997615814209
vt 0.059999998658895493 0.094999998807907104
vt 0.029999999329447746 0.125
vt 0 0.094999998807907104
vt -0.11064282059669495 0.064999997615814209
vt -0.11064282059669495 0.125
vt 0.029357172548770905 0.064999997615814209
vt 0.029357172548770905 0.125
vt -0.11064282059669495 0.094999998807907104
vt 0.029357172548770905 0.094999998807907104
vt -0.040642827749252319 0.125
vt -0.079999998211860657 0.064999997615814209
vt 0 0.079999998211860657
vt 0 0.064999997615814209
vt -0.039999999105930328 0.079999998211860657
vt -0.039999999105930328 0.064999997615814209
vt -0.059999998658895493 0.064999997615814209
vt -0.059999998658895493 0.064999997615814209
vt -0.059999998658895493 0.125
vt 0 0.064999997615814209
vt 0 0.125
vt -0.059999998658895493 0.094999998807907104
vt -0.029999999329447746 0.064999997615814209
vt 0 0.094999998807907104
vt -0.029999999329447746 0.125
vt 0 0
vt 0 0.029357172548770905
vt -0.059999998658895493 0
vt -0.059999998658895493 0.029357172548770905
vt -0.029999999329447746 0.029357172548770905
vt -0.029999999329447746 0
vt 0 -0.11064282059669495
vt 0 0.029357172548770905
vt 0.059999998658895493 -0.11064282059669495
vt 0.059999998658895493 0.029357172548770905
vt 0.029999999329447746 -0.11064282059669495
vt 0.059999998658895493 -0.040642827749252319
vt 0.029999999329447746 0.029357172548770905
vt 0 -0.040642827749252319
vt 0.079999998211860657 0.064999997615814209
vt 0.079999998211860657 0.045000001788139343
vt 0.039999999105930328 0.064999997615814209
vt 0.039999999105930328 0.045000001788139343
vt 0.059999998658895493 0.045000001788139343
vt 0.059999998658895493 0.064999997615814209
vt 0 0.064999997615814209
vt 0 0.045000001788139343
vt -0.079999998211860657 0.064999997615814209
vt -0.079999998211860657 0.045000001788139343
vt -0.039999999105930328 0.064999997615814209
vt -0.039999999105930328 0.045000001788139343
vt 0.28999999165534973 0.064999997615814209
vt 0.28999999165534973 0.045000001788139343
vt 0.059999998658895493 0.064999997615814209
vt 0.059999998658895493 0.045000001788139343
vt 0.21333333849906921 0.064999997615814209
vt 0.1366666704416275 0.064999997615814209
vt 0.1366666704416275 0.045000001788139343
vt 0.21333333849906921 0.045000001788139343
vt 0.059999998658895493 -0.079999998211860657
vt 0.28999999165534973 -0.079999998211860657
vt 0.28999999165534973 0
vt 0.28999999165534973 -0.039999999105930328
vt 0.059999998658895493 -0.039999999105930328
vt 0.21333333849906921 -0.079999998211860657
vt 0.1366666704416275 -0.079999998211860657
vt 0.090000003576278687 -0.039999999105930328
vt 0.11999999731779099 -0.039999999105930328
vt 0.11999999731779099 -0.019999999552965164
vt 0.11999999731779099 0
vt 0.059999998658895493 -0.059999998658895493
vt -0.059999998658895493 -0.079999998211860657
vt -0.28999999165534973 -0.079999998211860657
vt -0.28999999165534973 0
vt -0.059999998658895493 -0.059999998658895493
vt -0.28999999165534973 -0.039999999105930328
vt -0.059999998658895493 -0.039999999105930328
vt -0.21333333849906921 -0.079999998211860657
vt -0.1366666704416275 -0.079999998211860657
vt -0.11999999731779099 -0.039999999105930328
vt -0.11999999731779099 -0.019999999552965164
vt -0.11999999731779099 0
vt -0.039999999105930328 0.064999997615814209
vt -0.039999999105930328 0.079999998211860657
vt 0 0.064999997615814209
vt 0 0.079999998211860657
vt -0.019999999552965164 0.079999998211860657
vt -0.019999999552965164 0.064999997615814209
vt 0 -0.039999999105930328
vt 0 0
vt -0.11999999731779099 -0.039999999105930328
vt -0.11999999731779099 0
vt -0.059999998658895493 -0.039999999105930328
vt -0.11999999731779099 -0.019999999552965164
vt -0.059999998658895493 0
vt 0 0
vt 0 0.064999997615814209
vt 0.11999999731779099 0
vt 0.059999998658895493 0
vt 0.11999999731779099 0.022500000894069672
vt 0.11999999731779099 0.045000001788139343
vt 0.059999998658895493 0.064999997615814209
vt 0.059999998658895493 0.045000001788139343
vt 0.029999999329447746 0.064999997615814209
vt -0.039999999105930328 0
vt -0.039999999105930328 0.045000001788139343
vt 0 0
vt 0 0.045000001788139343
vt -0.039999999105930328 0.022500000894069672
vt -0.019999999552965164 0
vt 0 0.022500000894069672
vt -0.019999999552965164 0.045000001788139343
vt 0 -0.11064282059669495
vt 0 -0.039999999105930328
vt -0.059999998658895493 -0.11064282059669495
vt -0.059999998658895493 -0.039999999105930328
vt -0.029999999329447746 -0.11064282059669495
vt -0.059999998658895493 -0.079999998211860657
vt -0.029999999329447746 -0.039999999105930328
vt -0.059999998658895493 -0.059999998658895493
vt 0 -0.075321413576602936
vt 0.059999998658895493 -0.039999999105930328
vt 0.059999998658895493 0
vt 0.11999999731779099 -0.039999999105930328
vt 0.11999999731779099 0
vt 0.11999999731779099 -0.019999999552965164
vt 0.090000003576278687 0
vt 0.090000003576278687 -0.039999999105930328
vt 0.059999998658895493 0.064999997615814209
vt 0.059999998658895493 0.079999998211860657
vt 0.11999999731779099 0.064999997615814209
vt 0.11999999731779099 0.079999998211860657
vt 0.090000003576278687 0.064999997615814209
vt 0.090000003576278687 0.079999998211860657
vt 0 0
vt -0.28999999165534973 0.064999997615814209
vt -0.28999999165534973 0.045000001788139343
vt -0.11999999731779099 0.045000001788139343
vt -0.11999999731779099 0.022500000894069672
vt -0.11999999731779099 0
vt -0.072499997913837433 0.059999998658895493
vt -0.059999998658895493 0
vt 0 0.064999997615814209
vt -0.059999998658895493 0.079999998211860657
vt -0.090000003576278687 0.079999998211860657
vt -0.11999999731779099 0.079999998211860657
vt -0.11999999731779099 0.064999997615814209
vt -0.10875000059604645 0.059999998658895493
vt -0.072499997913837433 0.070000000298023224
vt -0.10875000059604645 0.070000000298023224
vt -0.059999998658895493 0.064999997615814209
vt -0.029999999329447746 0.064999997615814209
vt -0.029357172548770905 0.125
vt 0.11064282059669495 0.125
vt 0.11064282059669495 0.064999997615814209
vt 0.11064282059669495 0.094999998807907104
vt 0.040642827749252319 0.125
vt -0.029357172548770905 0.094999998807907104
vt -0.029357172548770905 0.064999997615814209
vt 0 0.064999997615814209
vt 0.039999999105930328 0
vt 0.039999999105930328 0.064999997615814209
vt 0 0
vt 0.075321413576602936 0.064999997615814209
vn 0 0 1
vn 0 0 1
vn 0 0 1
vn 0 0 1
vn 0 0 1
vn 0 0 1
vn 0 0 1
vn 0 0 1
vn 1 0 0
vn 1 0 0
vn 1 0 0
vn 1 0 0
vn 1 0 0
vn 1 0 0
vn 1 0 0
vn 1 0 0
vn 1 0 0
vn 1 0 0
vn 1 0 0
vn 1 0 0
vn 1 0 0
vn 0 0 -1
vn 0 0 -1
vn 0 0 -1
vn 0 0 -1
vn 0 0 -1
vn 0 0 -1
vn 0 0 -1
vn 0 0 -1
vn 0 -1 0
vn 0 -1 0
vn 0 -1 0
vn 0 -1 0
vn 0 -1 0
vn 0 -1 0
vn 0 1 0
vn 0 1 0
vn 0 1 0
vn 0 1 0
vn 0 1 0
vn 0 1 0
vn 0 1 0
vn 0 1 0
vn -1 0 0
vn -1 0 0
vn -1 0 0
vn -1 0 0
vn -1 0 0
vn -1 0 0
vn 1 0 0
vn 1 0 0
vn 1 0 0
vn 1 0 0
vn 1 0 0
vn 1 0 0
vn 0 0 1
vn 0 0 1
vn 0 0 1
vn 0 0 1
vn 0 0 1
vn 0 0 1
vn 0 0 1
vn 0 0 1
vn 0 1 0
vn 0 1 0
vn 0 1 0
vn 0 1 0
vn 0 1 0
vn 0 1 0
vn 0 1 0
vn 0 1 0
vn 0 1 0
vn 0 1 0
vn 0 1 0
vn 0 1 0
vn 0 -1 0
vn 0 -1 0
vn 0 -1 0
vn 0 -1 0
vn 0 -1 0
vn 0 -1 0
vn 0 -1 0
vn 0 -1 0
vn 0 -1 0
vn 0 -1 0
vn 0 -1 0
vn 1 0 0
vn 1 0 0
vn 1 0 0
vn 1 0 0
vn 1 0 0
vn 1 0 0
vn 0 -1 0
vn 0 -1 0
vn 0 -1 0
vn 0 -1 0
vn 0 -1 0
vn 0 -1 0
vn 0 -1 0
vn 0 0 1
vn 0 0 1
vn 0 0 1
vn 0 0 1
vn 0 0 1
vn 0 0 1
vn 0 0 1
vn 0 0 1
vn 0 0 1
vn 1 0 0
vn 1 0 0
vn 1 0 0
vn 1 0 0
vn 1 0 0
vn 1 0 0
vn 1 0 0
vn 1 0 0
vn 0 -1 0
vn 0 -1 0
vn 0 -1 0
vn 0 -1 0
vn 0 -1 0
vn 0 -1 0
vn 0 -1 0
vn 0 -1 0
vn 0 -1 0
vn 0 1 0
vn 0 1 0
vn 0 1 0
vn 0 1 0
vn 0 1 0
vn 0 1 0
vn 0 1 0
vn 0 0 1
vn 0 0 1
vn 0 0 1
vn 0 0 1
vn 0 0 1
vn 0 0 1
vn 0 0 -1
vn 0 0 -1
vn 0 0 -1
vn 0 0 -1
vn 0 0 -1
vn 0 0 -1
vn 0 0 -1
vn 0 0 -1
vn 0 0 -1
vn 0 0 -1
vn 0 0 -1
vn 0 0 -1
vn 0 0 -1
vn 0 0 -1
vn 0 0 -1
vn 0 0 -1
vn 0 0 -1
vn 0 0 -1
vn -1 0 0
vn -1 0 0
vn -1 0 0
vn -1 0 0
vn -1 0 0
vn -1 0 0
vn -1 0 0
vn -1 0 0
vn -1 0 0
vn -1 0 0
vn -1 0 0
vn -1 0 0
f 56/56/56 49/49/49 53/53/53
f 56/56/56 55/55/55 50/50/50
f 54/54/54 56/56/56 53/53/53
f 56/56/56 54/54/54 55/55/55
f 54/54/54 52/52/52 55/55/55
f 51/51/51 54/54/54 53/53/53
f 61/61/61 57/57/57 64/64/64
f 67/67/67 61/61/61 64/64/64
f 58/58/58 61/61/61 63/63/63
f 61/61/61 67/67/67 63/63/63
f 69/69/69 67/67/67 64/64/64
f 65/65/65 66/66/66 59/59/59
f 62/62/62 67/67/67 65/65/65
f 62/62/62 60/60/60 63/63/63
f 62/62/62 65/65/65 59/59/59
f 67/67/67 62/62/62 63/63/63
f 69/69/69 68/68/68 67/67/67
f 74/74/74 70/70/70 75/75/75
f 74/74/74 77/77/77 71/71/71
f 76/76/76 74/74/74 75/75/75
f 74/74/74 76/76/76 77/77/77
f 76/76/76 73/73/73 77/77/77
f 72/72/72 76/76/76 75/75/75
f 79/79/79 82/82/82 83/83/83 78/78/78
f 80/80/80 83/83/83 82/82/82 81/81/81
f 91/91/91 84/84/84 88/88/88
f 91/91/91 90/90/90 85/85/85
f 89/89/89 91/91/91 88/88/88
f 91/91/91 89/89/89 90/90/90
f 89/89/89 87/87/87 90/90/90
f 86/86/86 89/89/89 88/88/88
f 93/93/93 92/92/92 97/97/97 96/96/96
f 94/94/94 95/95/95 96/96/96 97/97/97
f 99/99/99 98/98/98 102/102/102 103/103/103
f 100/100/100 101/101/101 103/103/103 102/102/102
f 108/108/108 111/111/111 105/105/105 104/104/104
f 111/111/111 108/108/108 109/109/109 110/110/110
f 106/106/106 107/107/107 110/110/110 109/109/109
f 118/118/118 123/123/123 112/112/112
f 120/120/120 123/123/123 118/118/118
f 118/118/118 117/117/117 120/120/120
f 117/117/117 113/113/113 115/115/115
f 123/123/123 119/119/119 116/116/116
f 115/115/115 121/121/121 120/120/120
f 123/123/123 120/120/120 119/119/119
f 115/115/115 114/114/114 121/121/121
f 122/122/122 121/121/121 114/114/114
f 117/117/117 115/115/115 120/120/120
f 131/131/131 124/124/124 127/127/127
f 131/131/131 132/132/132 130/130/130
f 130/130/130 128/128/128 125/125/125
f 127/127/127 132/132/132 131/131/131
f 126/126/126 133/133/133 134/134/134
f 132/132/132 133/133/133 128/128/128
f 126/126/126 128/128/128 133/133/133
f 130/130/130 132/132/132 128/128/128
f 127/127/127 129/129/129 132/132/132
f 136/136/136 135/135/135 140/140/140 139/139/139
f 137/137/137 138/138/138 139/139/139 140/140/140
f 142/142/142 147/147/147 145/145/145 141/141/141
f 145/145/145 147/147/147 146/146/146
f 146/146/146 147/147/147 144/144/144
f 143/143/143 145/145/145 146/146/146
f 149/149/149 148/148/148 151/151/151 155/155/155
f 149/149/149 155/155/155 156/156/156
f 151/151/151 152/152/152 155/155/155
f 152/152/152 153/153/153 155/155/155
f 156/156/156 155/155/155 154/154/154
f 150/150/150 152/152/152 151/151/151
f 161/161/161 157/157/157 162/162/162
f 161/161/161 164/164/164 158/158/158
f 163/163/163 161/161/161 162/162/162
f 161/161/161 163/163/163 164/164/164
f 163/163/163 160/160/160 164/164/164
f 159/159/159 163/163/163 162/162/162
f 173/173/173 169/169/169 165/165/165
f 173/173/173 166/166/166 171/171/171
f 171/171/171 169/169/169 173/173/173
f 171/171/171 172/172/172 170/170/170 169/169/169
f 168/168/168 172/172/172 171/171/171
f 167/167/167 169/169/169 170/170/170
f 175/175/175 174/174/174 180/180/180 179/179/179
f 180/180/180 178/178/178 179/179/179
f 178/178/178 177/177/177 179/179/179
f 176/176/176 178/178/178 180/180/180
f 181/181/181 185/185/185 186/186/186 182/182/182
f 184/184/184 186/186/186 185/185/185 183/183/183
f 200/200/200 193/193/193 201/201/201 202/202/202
f 196/196/196 197/197/197 201/201/201
f 203/203/203 196/196/196 201/201/201
f 191/191/191 187/187/187 195/195/195
f 204/204/204 193/193/193 195/195/195
f 194/194/194 187/187/187 191/191/191
f 201/201/201 193/193/193 203/203/203
f 191/191/191 195/195/195 193/193/193
f 203/203/203 193/193/193 204/204/204
f 202/202/202 201/201/201 197/197/197 198/198/198
f 199/199/199 202/202/202 198/198/198
f 188/188/188 189/189/189 190/190/190 199/199/199
f 200/200/200 202/202/202 199/199/199
f 193/193/193 190/190/190 191/191/191
f 190/190/190 200/200/200 199/199/199
f 191/191/191 192/192/192 194/194/194
f 190/190/190 193/193/193 200/200/200
f 215/215/215 213/213/213 214/214/214 212/212/212
f 209/209/209 205/205/205 210/210/210
f 211/211/211 212/212/212 210/210/210
f 210/210/210 212/212/212 209/209/209
f 209/209/209 214/214/214 216/216/216
f 208/208/208 216/216/216 207/207/207
f 206/206/206 209/209/209 208/208/208
f 216/216/216 208/208/208 209/209/209
f 212/212/212 214/214/214 209/209/209
usemtl Gray Glass
v 5 0 -4.9663443565368652
v 5 8 -4.9663443565368652
v 17.5 0 -4.9663443565368652
v 17.5 8 -4.9663443565368652
v 17.5 0 -4.9663443565368652
v 17.5 8 -4.9663443565368652
v 17.5 0 -23.966344833374023
v 17.5 8 -23.966344833374023
v 17.5 0 -23.966344833374023
v 17.5 8 -23.966344833374023
v 5 0 -23.966344833374023
v 5 8 -23.966344833374023
v 5 0 -23.966344833374023
v 5 8 -23.966344833374023
v 5 0 -4.9663443565368652
v 5 8 -4.9663443565368652
v 5 0 -4.9663443565368652
v 17.5 0 -4.9663443565368652
v 17.5 0 -23.966344833374023
v 5 0 -23.966344833374023
v 5 8 -4.9663443565368652
v 17.5 8 -4.9663443565368652
v 17.5 8 -23.966344833374023
v 5 8 -23.966344833374023
vt 0 0
vt 0 0.6212117075920105
vt 0.1984127014875412 0
vt 0.1984127014875412 0.6212117075920105
vt 0.1984127014875412 0
vt 0.1984127014875412 0.6212117075920105
vt 0.5 0
vt 0.5 0.6212117075920105
vt 0.5 0
vt 0.5 0.6212117075920105
vt 0.69841271638870239 0
vt 0.69841271638870239 0.6212117075920105
vt 0.69841271638870239 0
vt 0.69841271638870239 0.6212117075920105
vt 1 0
vt 1 0.6212117075920105
vt 0.30158731341362 1
vt 0.30158731341362 0.62121236324310303
vt 0 0.62121236324310303
vt 0 1
vt 1 0.62121236324310303
vt 1 1
vt 0.69841271638870239 1
vt 0.69841271638870239 0.62121236324310303
vn 0 0 1
vn 0 0 1
vn 0 0 1
vn 0 0 1
vn 1 0 0
vn 1 0 0
vn 1 0 0
vn 1 0 0
vn 0 0 -1
vn 0 0 -1
vn 0 0 -1
vn 0 0 -1
vn -1 0 0
vn -1 0 0
vn -1 0 0
vn -1 0 0
vn 0 -1 0
vn 0 -1 0
vn 0 -1 0
vn 0 -1 0
vn 0 1 0
vn 0 1 0
vn 0 1 0
vn 0 1 0
f 217/217/217 219/219/219 220/220/220 218/218/218
f 221/221/221 223/223/223 224/224/224 222/222/222
f 225/225/225 227/227/227 228/228/228 226/226/226
f 229/229/229 231/231/231 232/232/232 230/230/230
f 234/234/234 233/233/233 236/236/236
f 236/236/236 235/235/235 234/234/234
f 238/238/238 240/240/240 237/237/237
f 240/240/240 238/238/238 239/239/239
